<svg width="26" height="27" viewBox="0 0 26 27" fill="none" xmlns="http://www.w3.org/2000/svg">
<g clip-path="url(#clip0_150_1601)">
<path d="M12.618 18.4205C11.811 18.4205 11.0041 18.1391 10.3157 17.569L0.120605 9.1431V20.911C0.120605 22.286 1.1697 23.4016 2.46387 23.4016H22.7721C24.0663 23.4016 25.1154 22.2866 25.1154 20.911V9.1431L14.9222 17.5747C14.2339 18.1403 13.4235 18.4205 12.618 18.4205ZM0.91585 7.69545L11.275 16.262C12.0654 16.9158 13.1726 16.9158 13.9629 16.262L24.3221 7.69545C24.7786 7.28036 25.1154 6.64215 25.1154 5.96762C25.1154 4.5921 24.0658 3.47705 22.7721 3.47705H2.46387C1.1697 3.47705 0.120605 4.5921 0.120605 5.96762C0.120605 6.64215 0.414001 7.28036 0.91585 7.69545Z" fill="white"/>
</g>
<defs>
<clipPath id="clip0_150_1601">
<rect width="24.9948" height="26.5661" fill="white" transform="translate(0.120605 0.15625)"/>
</clipPath>
</defs>
</svg>
