<svg width="38" height="38" viewBox="0 0 38 38" fill="none" xmlns="http://www.w3.org/2000/svg">
<g clip-path="url(#clip0_128_2476)">
<path d="M9.66168 1.44108C9.21053 0.351281 8.02113 -0.228771 6.88446 0.0817618L1.72844 1.48795C0.708953 1.76919 0 2.69493 0 3.74957C0 18.245 11.7534 29.9984 26.2488 29.9984C27.3035 29.9984 28.2292 29.2895 28.5105 28.27L29.9166 23.114C30.2272 21.9773 29.6471 20.7879 28.5573 20.3367L22.9326 17.9931C21.9775 17.5947 20.8702 17.87 20.2198 18.6727L17.8527 21.5613C13.7279 19.6102 10.3882 16.2705 8.43713 12.1457L11.3257 9.78446C12.1284 9.12824 12.4037 8.02672 12.0053 7.07169L9.66168 1.44694V1.44108Z" fill="black"/>
</g>
<defs>
<clipPath id="clip0_128_2476">
<rect width="38" height="38" fill="white"/>
</clipPath>
</defs>
</svg>
