<svg width="26" height="27" viewBox="0 0 26 27" fill="none" xmlns="http://www.w3.org/2000/svg">
<g clip-path="url(#clip0_150_1596)">
<path d="M25.0763 20.2739L23.9413 25.5041C23.7819 26.2435 23.1705 26.7608 22.4543 26.7608C10.1381 26.7598 0.120605 16.1126 0.120605 3.0215C0.120605 2.26084 0.607272 1.61018 1.30298 1.44154L6.22383 0.235174C6.94047 0.0586551 7.67274 0.454033 7.97053 1.17536L10.2415 6.80509C10.507 7.46821 10.328 8.2408 9.80316 8.69637L7.1748 10.9394C8.83363 14.5311 11.5811 17.4512 14.9613 19.2154L17.1132 16.4239C17.5373 15.8645 18.2697 15.671 18.8936 15.9582L24.1903 18.3715C24.8274 18.7277 25.2423 19.5163 25.0763 20.2739Z" fill="white"/>
</g>
<defs>
<clipPath id="clip0_150_1596">
<rect width="24.9948" height="26.5661" fill="white" transform="translate(0.120605 0.193359)"/>
</clipPath>
</defs>
</svg>
