<svg width="241" height="28" viewBox="0 0 241 28" fill="none" xmlns="http://www.w3.org/2000/svg">
<path d="M29.1949 7.19128C29.215 7.48093 29.215 7.77063 29.215 8.06027C29.215 16.8947 22.6616 27.0741 10.6838 27.0741C6.99364 27.0741 3.56568 25.9775 0.682129 24.0741C1.20643 24.1361 1.71049 24.1568 2.25496 24.1568C5.29977 24.1568 8.10269 23.1017 10.341 21.3017C7.47759 21.2396 5.07799 19.3155 4.25123 16.6672C4.65456 16.7292 5.05782 16.7706 5.48132 16.7706C6.06607 16.7706 6.65089 16.6878 7.1953 16.543C4.21095 15.9223 1.97261 13.2327 1.97261 9.9844V9.90167C2.83965 10.3982 3.84797 10.7086 4.91661 10.7499C3.16229 9.54987 2.01295 7.50162 2.01295 5.18437C2.01295 3.94301 2.33553 2.80508 2.90017 1.81197C6.10636 5.86714 10.9257 8.51537 16.3298 8.80507C16.229 8.30852 16.1685 7.79133 16.1685 7.27407C16.1685 3.59127 19.0722 0.591309 22.6816 0.591309C24.5569 0.591309 26.2507 1.3982 27.4405 2.70165C28.9124 2.41201 30.324 1.85336 31.5742 1.08786C31.0902 2.63962 30.0618 3.94307 28.7108 4.7706C30.0216 4.62584 31.2919 4.25335 32.4614 3.73616C31.5743 5.06024 30.4652 6.23951 29.1949 7.19128Z" fill="#15742A" fill-opacity="0.93"/>
<g clip-path="url(#clip0_150_1569)">
<path d="M72.1887 7.04333C68.4312 7.04333 65.4003 10.0748 65.4003 13.8332C65.4003 17.5915 68.4312 20.623 72.1887 20.623C75.9462 20.623 78.977 17.5915 78.977 13.8332C78.977 10.0748 75.9462 7.04333 72.1887 7.04333ZM72.1887 18.2475C69.7605 18.2475 67.7754 16.2678 67.7754 13.8332C67.7754 11.3985 69.7546 9.41889 72.1887 9.41889C74.6228 9.41889 76.602 11.3985 76.602 13.8332C76.602 16.2678 74.6169 18.2475 72.1887 18.2475ZM80.838 6.76559C80.838 7.64608 80.1291 8.3493 79.2547 8.3493C78.3744 8.3493 77.6713 7.64017 77.6713 6.76559C77.6713 5.89101 78.3803 5.18188 79.2547 5.18188C80.1291 5.18188 80.838 5.89101 80.838 6.76559ZM85.334 8.37293C85.2336 6.25148 84.7491 4.3723 83.1953 2.82405C81.6474 1.2758 79.7687 0.791237 77.6477 0.684869C75.4617 0.560773 68.9097 0.560773 66.7237 0.684869C64.6087 0.785328 62.7299 1.26989 61.1761 2.81814C59.6223 4.36639 59.1437 6.24557 59.0374 8.36702C58.9133 10.5535 58.9133 17.107 59.0374 19.2934C59.1378 21.4149 59.6223 23.294 61.1761 24.8423C62.7299 26.3905 64.6028 26.8751 66.7237 26.9815C68.9097 27.1056 75.4617 27.1056 77.6477 26.9815C79.7687 26.881 81.6474 26.3965 83.1953 24.8423C84.7432 23.294 85.2277 21.4149 85.334 19.2934C85.4581 17.107 85.4581 10.5594 85.334 8.37293ZM82.51 21.6394C82.0492 22.7977 81.1571 23.69 79.9932 24.1568C78.2503 24.8482 74.1147 24.6887 72.1887 24.6887C70.2626 24.6887 66.1211 24.8423 64.3842 24.1568C63.2262 23.6959 62.3341 22.8036 61.8673 21.6394C61.1761 19.8962 61.3356 15.7596 61.3356 13.8332C61.3356 11.9067 61.182 7.76427 61.8673 6.02692C62.3282 4.86869 63.2203 3.97638 64.3842 3.50954C66.127 2.81814 70.2626 2.9777 72.1887 2.9777C74.1147 2.9777 78.2562 2.82405 79.9932 3.50954C81.1512 3.97047 82.0433 4.86278 82.51 6.02692C83.2012 7.77018 83.0417 11.9067 83.0417 13.8332C83.0417 15.7596 83.2012 19.9021 82.51 21.6394Z" fill="#15742A" fill-opacity="0.93"/>
</g>
<g clip-path="url(#clip1_150_1569)">
<path d="M131.349 15.4883L132.134 10.6956H127.227V7.58542C127.227 6.27421 127.912 4.99611 130.11 4.99611H132.341V0.91559C132.341 0.91559 130.316 0.591797 128.381 0.591797C124.34 0.591797 121.698 2.88731 121.698 7.04283V10.6956H117.206V15.4883H121.698V27.0746H127.227V15.4883H131.349Z" fill="#15742A" fill-opacity="0.93"/>
</g>
<g clip-path="url(#clip2_150_1569)">
<path d="M194.262 6.55467C193.916 5.24984 192.899 4.2222 191.608 3.87346C189.267 3.23975 179.882 3.23975 179.882 3.23975C179.882 3.23975 170.496 3.23975 168.156 3.87346C166.864 4.22226 165.847 5.24984 165.502 6.55467C164.875 8.91975 164.875 13.8543 164.875 13.8543C164.875 13.8543 164.875 18.7888 165.502 21.1538C165.847 22.4587 166.864 23.4435 168.156 23.7922C170.496 24.426 179.882 24.426 179.882 24.426C179.882 24.426 189.267 24.426 191.608 23.7922C192.899 23.4435 193.916 22.4587 194.262 21.1538C194.889 18.7888 194.889 13.8543 194.889 13.8543C194.889 13.8543 194.889 8.91975 194.262 6.55467ZM176.812 18.3344V9.37409L184.657 13.8544L176.812 18.3344Z" fill="#15742A" fill-opacity="0.93"/>
</g>
<defs>
<clipPath id="clip0_150_1569">
<rect width="26.4828" height="26.4828" fill="white" transform="translate(58.9443 0.591309)"/>
</clipPath>
<clipPath id="clip1_150_1569">
<rect width="26.4828" height="26.4828" fill="white" transform="translate(111.91 0.591309)"/>
</clipPath>
<clipPath id="clip2_150_1569">
<rect width="30.0138" height="26.4828" fill="white" transform="translate(164.875 0.591309)"/>
</clipPath>
</defs>
</svg>
