<svg width="36" height="54" viewBox="0 0 36 54" fill="none" xmlns="http://www.w3.org/2000/svg">
<path d="M20.1926 52.65C24.8952 45.8789 35.6206 29.468 35.6206 20.25C35.6206 9.07031 27.737 0 18.02 0C8.30302 0 0.419434 9.07031 0.419434 20.25C0.419434 29.468 11.1448 45.8789 15.8474 52.65C16.975 54.2637 19.065 54.2637 20.1926 52.65ZM18.02 13.5C19.576 13.5 21.0683 14.2112 22.1685 15.477C23.2688 16.7429 23.8869 18.4598 23.8869 20.25C23.8869 22.0402 23.2688 23.7571 22.1685 25.023C21.0683 26.2888 19.576 27 18.02 27C16.464 27 14.9718 26.2888 13.8715 25.023C12.7713 23.7571 12.1531 22.0402 12.1531 20.25C12.1531 18.4598 12.7713 16.7429 13.8715 15.477C14.9718 14.2112 16.464 13.5 18.02 13.5Z" fill="black"/>
</svg>
