<svg width="36" height="35" viewBox="0 0 36 35" fill="none" xmlns="http://www.w3.org/2000/svg">
<path d="M3.73126 0C1.90933 0 0.431152 1.95964 0.431152 4.375C0.431152 5.7513 0.919293 7.04557 1.7512 7.875L16.7117 22.75C17.4955 23.5247 18.568 23.5247 19.3518 22.75L34.3123 7.875C35.1442 7.04557 35.6323 5.7513 35.6323 4.375C35.6323 1.95964 34.1541 0 32.3322 0H3.73126ZM0.431152 10.2083V29.1667C0.431152 32.3841 2.40434 35 4.8313 35H31.2322C33.6591 35 35.6323 32.3841 35.6323 29.1667V10.2083L20.6718 25.0833C19.1043 26.6419 16.9592 26.6419 15.3916 25.0833L0.431152 10.2083Z" fill="black"/>
</svg>
