<svg width="27" height="29" viewBox="0 0 27 29" fill="none" xmlns="http://www.w3.org/2000/svg">
<g clip-path="url(#clip0_150_1695)">
<path d="M13.5334 19.5501C12.7021 19.5501 11.8709 19.2596 11.1618 18.6708L0.65918 9.96913V22.1222C0.65918 23.5422 1.73991 24.6942 3.0731 24.6942H23.9938C25.327 24.6942 26.4077 23.5427 26.4077 22.1222V9.96913L15.9071 18.6767C15.198 19.2607 14.3632 19.5501 13.5334 19.5501ZM1.47841 8.47412L12.15 17.321C12.9642 17.9961 14.1047 17.9961 14.9189 17.321L25.5905 8.47412C26.0607 8.04544 26.4077 7.38635 26.4077 6.68974C26.4077 5.26921 25.3265 4.11768 23.9938 4.11768H3.0731C1.73991 4.11768 0.65918 5.26921 0.65918 6.68974C0.65918 7.38635 0.961423 8.04544 1.47841 8.47412Z" fill="white"/>
</g>
<defs>
<clipPath id="clip0_150_1695">
<rect width="25.7485" height="27.4354" fill="white" transform="translate(0.65918 0.688477)"/>
</clipPath>
</defs>
</svg>
