<svg width="20" height="27" viewBox="0 0 20 27" fill="none" xmlns="http://www.w3.org/2000/svg">
<g clip-path="url(#clip0_150_1607)">
<path d="M8.90747 26.3292C6.35917 22.998 0.691406 14.9244 0.691406 10.3895C0.691406 4.88744 4.8878 0.427246 10.0645 0.427246C15.2392 0.427246 19.4375 4.88744 19.4375 10.3895C19.4375 14.9244 13.7258 22.998 11.2214 26.3292C10.621 27.123 9.50793 27.123 8.90747 26.3292ZM10.0645 13.7103C11.7877 13.7103 13.1888 12.2211 13.1888 10.3895C13.1888 8.55792 11.7877 7.06877 10.0645 7.06877C8.34118 7.06877 6.94011 8.55792 6.94011 10.3895C6.94011 12.2211 8.34118 13.7103 10.0645 13.7103Z" fill="white"/>
</g>
<defs>
<clipPath id="clip0_150_1607">
<rect width="18.7461" height="26.5661" fill="white" transform="translate(0.691406 0.427246)"/>
</clipPath>
</defs>
</svg>
