<svg width="20" height="28" viewBox="0 0 20 28" fill="none" xmlns="http://www.w3.org/2000/svg">
<g clip-path="url(#clip0_150_1701)">
<path d="M8.80171 26.7935C6.17657 23.3533 0.337891 15.0155 0.337891 10.3322C0.337891 4.65009 4.66083 0.0439453 9.99359 0.0439453C15.3243 0.0439453 19.6493 4.65009 19.6493 10.3322C19.6493 15.0155 13.7653 23.3533 11.1855 26.7935C10.5669 27.6133 9.42028 27.6133 8.80171 26.7935ZM9.99359 13.7616C11.7688 13.7616 13.2122 12.2238 13.2122 10.3322C13.2122 8.44068 11.7688 6.90279 9.99359 6.90279C8.21835 6.90279 6.77502 8.44068 6.77502 10.3322C6.77502 12.2238 8.21835 13.7616 9.99359 13.7616Z" fill="white"/>
</g>
<defs>
<clipPath id="clip0_150_1701">
<rect width="19.3114" height="27.4354" fill="white" transform="translate(0.337891 0.0439453)"/>
</clipPath>
</defs>
</svg>
