<svg width="27" height="29" viewBox="0 0 27 29" fill="none" xmlns="http://www.w3.org/2000/svg">
<g clip-path="url(#clip0_150_1690)">
<path d="M26.3675 21.5841L25.1982 26.9854C25.034 27.749 24.4041 28.2832 23.6664 28.2832C10.9787 28.2822 0.65918 17.2866 0.65918 3.76712C0.65918 2.98157 1.16052 2.30962 1.87721 2.13546L6.94645 0.889619C7.6847 0.707323 8.43906 1.11564 8.74583 1.86057L11.0853 7.67452C11.3588 8.35934 11.1743 9.15721 10.6337 9.62769L7.9261 11.9442C9.63495 15.6533 12.4653 18.669 15.9474 20.4909L18.1642 17.6081C18.6011 17.0304 19.3555 16.8306 19.9982 17.1271L25.4547 19.6194C26.111 19.9872 26.5385 20.8017 26.3675 21.5841Z" fill="white"/>
</g>
<defs>
<clipPath id="clip0_150_1690">
<rect width="25.7485" height="27.4354" fill="white" transform="translate(0.65918 0.84668)"/>
</clipPath>
</defs>
</svg>
