<svg width="241" height="28" viewBox="0 0 241 28" fill="none" xmlns="http://www.w3.org/2000/svg">
<path d="M29.1953 7.19128C29.2155 7.48093 29.2155 7.77063 29.2155 8.06027C29.2155 16.8947 22.6621 27.0741 10.6843 27.0741C6.99412 27.0741 3.56617 25.9775 0.682617 24.0741C1.20692 24.1361 1.71098 24.1568 2.25545 24.1568C5.30026 24.1568 8.10318 23.1017 10.3415 21.3017C7.47808 21.2396 5.07848 19.3155 4.25172 16.6672C4.65505 16.7292 5.05831 16.7706 5.48181 16.7706C6.06656 16.7706 6.65138 16.6878 7.19579 16.543C4.21144 15.9223 1.9731 13.2327 1.9731 9.9844V9.90167C2.84014 10.3982 3.84846 10.7086 4.9171 10.7499C3.16278 9.54987 2.01344 7.50162 2.01344 5.18437C2.01344 3.94301 2.33602 2.80508 2.90066 1.81197C6.10685 5.86714 10.9262 8.51537 16.3303 8.80507C16.2295 8.30852 16.1689 7.79133 16.1689 7.27407C16.1689 3.59127 19.0727 0.591309 22.6821 0.591309C24.5574 0.591309 26.2512 1.3982 27.441 2.70165C28.9129 2.41201 30.3244 1.85336 31.5747 1.08786C31.0907 2.63962 30.0623 3.94307 28.7113 4.7706C30.022 4.62584 31.2924 4.25335 32.4619 3.73616C31.5748 5.06024 30.4657 6.23951 29.1953 7.19128Z" fill="#15742A" fill-opacity="0.93"/>
<g clip-path="url(#clip0_150_1663)">
<path d="M72.1887 7.04309C68.4312 7.04309 65.4003 10.0746 65.4003 13.8329C65.4003 17.5913 68.4312 20.6228 72.1887 20.6228C75.9462 20.6228 78.977 17.5913 78.977 13.8329C78.977 10.0746 75.9462 7.04309 72.1887 7.04309ZM72.1887 18.2472C69.7605 18.2472 67.7754 16.2676 67.7754 13.8329C67.7754 11.3983 69.7546 9.41865 72.1887 9.41865C74.6228 9.41865 76.602 11.3983 76.602 13.8329C76.602 16.2676 74.6169 18.2472 72.1887 18.2472ZM80.838 6.76535C80.838 7.64584 80.1291 8.34905 79.2547 8.34905C78.3744 8.34905 77.6713 7.63993 77.6713 6.76535C77.6713 5.89076 78.3803 5.18164 79.2547 5.18164C80.1291 5.18164 80.838 5.89076 80.838 6.76535ZM85.334 8.37269C85.2336 6.25123 84.7491 4.37206 83.1953 2.82381C81.6474 1.27556 79.7687 0.790993 77.6477 0.684625C75.4617 0.560529 68.9097 0.560529 66.7237 0.684625C64.6087 0.785084 62.7299 1.26965 61.1761 2.8179C59.6223 4.36615 59.1437 6.24532 59.0374 8.36678C58.9133 10.5532 58.9133 17.1067 59.0374 19.2932C59.1378 21.4146 59.6223 23.2938 61.1761 24.8421C62.7299 26.3903 64.6028 26.8749 66.7237 26.9812C68.9097 27.1053 75.4617 27.1053 77.6477 26.9812C79.7687 26.8808 81.6474 26.3962 83.1953 24.8421C84.7432 23.2938 85.2277 21.4146 85.334 19.2932C85.4581 17.1067 85.4581 10.5592 85.334 8.37269ZM82.51 21.6392C82.0492 22.7974 81.1571 23.6897 79.9932 24.1566C78.2503 24.848 74.1147 24.6884 72.1887 24.6884C70.2626 24.6884 66.1211 24.8421 64.3842 24.1566C63.2262 23.6956 62.3341 22.8033 61.8673 21.6392C61.1761 19.8959 61.3356 15.7594 61.3356 13.8329C61.3356 11.9065 61.182 7.76403 61.8673 6.02668C62.3282 4.86845 63.2203 3.97613 64.3842 3.50929C66.127 2.8179 70.2626 2.97745 72.1887 2.97745C74.1147 2.97745 78.2562 2.82381 79.9932 3.50929C81.1512 3.97022 82.0433 4.86254 82.51 6.02668C83.2012 7.76994 83.0417 11.9065 83.0417 13.8329C83.0417 15.7594 83.2012 19.9018 82.51 21.6392Z" fill="#15742A" fill-opacity="0.93"/>
</g>
<g clip-path="url(#clip1_150_1663)">
<path d="M131.35 15.4881L132.135 10.6953H127.228V7.58517C127.228 6.27397 127.913 4.99586 130.111 4.99586H132.342V0.915346C132.342 0.915346 130.317 0.591553 128.382 0.591553C124.341 0.591553 121.699 2.88707 121.699 7.04259V10.6953H117.207V15.4881H121.699V27.0743H127.228V15.4881H131.35Z" fill="#15742A" fill-opacity="0.93"/>
</g>
<g clip-path="url(#clip2_150_1663)">
<path d="M194.263 6.55491C193.917 5.25009 192.9 4.22245 191.609 3.8737C189.268 3.23999 179.883 3.23999 179.883 3.23999C179.883 3.23999 170.497 3.23999 168.157 3.8737C166.865 4.2225 165.848 5.25009 165.503 6.55491C164.876 8.91999 164.876 13.8545 164.876 13.8545C164.876 13.8545 164.876 18.789 165.503 21.1541C165.848 22.4589 166.865 23.4437 168.157 23.7925C170.497 24.4262 179.883 24.4262 179.883 24.4262C179.883 24.4262 189.268 24.4262 191.609 23.7925C192.9 23.4437 193.917 22.4589 194.263 21.1541C194.89 18.789 194.89 13.8545 194.89 13.8545C194.89 13.8545 194.89 8.91999 194.263 6.55491ZM176.813 18.3347V9.37433L184.658 13.8546L176.813 18.3347Z" fill="#15742A" fill-opacity="0.93"/>
</g>
<defs>
<clipPath id="clip0_150_1663">
<rect width="26.4828" height="26.4828" fill="white" transform="translate(58.9443 0.591309)"/>
</clipPath>
<clipPath id="clip1_150_1663">
<rect width="26.4828" height="26.4828" fill="white" transform="translate(111.91 0.591309)"/>
</clipPath>
<clipPath id="clip2_150_1663">
<rect width="30.0138" height="26.4828" fill="white" transform="translate(164.876 0.591309)"/>
</clipPath>
</defs>
</svg>
